<svg xmlns="http://www.w3.org/2000/svg" viewBox="0 0 24 24" fill="none">
  <path d="M7.7 11.2a3.1 3.1 0 1 0 0-6.2 3.1 3.1 0 0 0 0 6.2Z" stroke="#f7fbff" stroke-width="2"/>
  <path d="M2.9 19.2v-.8a4.8 4.8 0 0 1 7.5-4" stroke="#f7fbff" stroke-width="2" stroke-linecap="round"/>
  <path d="M13.3 5.4h4.4a3.3 3.3 0 0 1 3.3 3.3v2.2a3.3 3.3 0 0 1-3.3 3.3h-.9L13.2 18v-3.8a3.3 3.3 0 0 1-3.2-3.3V8.7a3.3 3.3 0 0 1 3.3-3.3Z" stroke="#f7fbff" stroke-width="2" stroke-linejoin="round"/>
  <path d="M14.1 9.8h.1M17 9.8h.1" stroke="#f7fbff" stroke-width="2.6" stroke-linecap="round"/>
</svg>
